HIERARCHY
ROOT hip
{
  OFFSET 0 0 0
  CHANNELS 6 Xposition Yposition Zposition Zrotation Yrotation Xrotation
  JOINT abdomen
  {
    OFFSET 0 20.6881 -0.73152
    CHANNELS 3 Zrotation Xrotation Yrotation
    JOINT chest
    {
      OFFSET 0 11.7043 -0.48768
      CHANNELS 3 Zrotation Xrotation Yrotation
      JOINT neck
      {
        OFFSET 0 22.1894 -2.19456
        CHANNELS 3 Zrotation Xrotation Yrotation
        JOINT head
        {
          OFFSET -0.24384 7.07133 1.2192
          CHANNELS 3 Zrotation Xrotation Yrotation
          JOINT leftEye
          {
            OFFSET 4.14528 8.04674 8.04672
            CHANNELS 3 Zrotation Xrotation Yrotation
            End Site
            {
              OFFSET 1 0 0
            }
          }
          JOINT rightEye
          {
            OFFSET -3.6576 8.04674 8.04672
            CHANNELS 3 Zrotation Xrotation Yrotation
            End Site
            {
              OFFSET 1 0 0
            }
          }
        }
      }
      JOINT rCollar
      {
        OFFSET -2.68224 19.2634 -4.8768
        CHANNELS 3 Zrotation Xrotation Yrotation
        JOINT rShldr
        {
          OFFSET -8.77824 -1.95073 1.46304
          CHANNELS 3 Zrotation Xrotation Yrotation
          JOINT rForeArm
          {
            OFFSET -28.1742 -1.7115 0.48768
            CHANNELS 3 Zrotation Xrotation Yrotation
            JOINT rHand
            {
              OFFSET -22.5879 0.773209 7.07136
              CHANNELS 3 Zrotation Xrotation Yrotation
              JOINT rThumb1
              {
                OFFSET -1.2192 -0.487915 3.41376
                CHANNELS 3 Zrotation Xrotation Yrotation
                JOINT rThumb2
                {
                  OFFSET -3.37035 -0.52449 3.41376
                  CHANNELS 3 Zrotation Xrotation Yrotation
                  End Site
                  {
                    OFFSET -1.78271 -1.18214 1.43049
                  }
                }
              }
              JOINT rIndex1
              {
                OFFSET -7.75947 0.938293 5.60832
                CHANNELS 3 Zrotation Xrotation Yrotation
                JOINT rIndex2
                {
                  OFFSET -2.54057 -0.884171 1.56538
                  CHANNELS 3 Zrotation Xrotation Yrotation
                  End Site
                  {
                    OFFSET -1.62519 -0.234802 1.16502
                  }
                }
              }
              JOINT rMid1
              {
                OFFSET -8.24714 1.18213 3.41376
                CHANNELS 3 Zrotation Xrotation Yrotation
                JOINT rMid2
                {
                  OFFSET -3.10165 -0.590103 1.0647
                  CHANNELS 3 Zrotation Xrotation Yrotation
                  End Site
                  {
                    OFFSET -2.48547 -0.328903 0.83742
                  }
                }
              }
              JOINT rRing1
              {
                OFFSET -8.82822 0.546677 1.51678
                CHANNELS 3 Zrotation Xrotation Yrotation
                JOINT rRing2
                {
                  OFFSET -2.60934 -0.819778 -0.0198488
                  CHANNELS 3 Zrotation Xrotation Yrotation
                  End Site
                  {
                    OFFSET -2.33842 -0.294052 0.168128
                  }
                }
              }
              JOINT rPinky1
              {
                OFFSET -8.27202 -0.0477905 -0.4584
                CHANNELS 3 Zrotation Xrotation Yrotation
                JOINT rPinky2
                {
                  OFFSET -1.82734 -0.647385 -0.700984
                  CHANNELS 3 Zrotation Xrotation Yrotation
                  End Site
                  {
                    OFFSET -1.69225 -0.51767 -0.607171
                  }
                }
              }
            }
          }
        }
      }
      JOINT lCollar
      {
        OFFSET 2.68224 19.2634 -4.8768
        CHANNELS 3 Zrotation Xrotation Yrotation
        JOINT lShldr
        {
          OFFSET 8.77824 -1.95073 1.46304
          CHANNELS 3 Zrotation Xrotation Yrotation
          JOINT lForeArm
          {
            OFFSET 28.1742 -1.7115 0.48768
            CHANNELS 3 Zrotation Xrotation Yrotation
            JOINT lHand
            {
              OFFSET 22.5879 0.773209 7.07136
              CHANNELS 3 Zrotation Xrotation Yrotation
              JOINT lThumb1
              {
                OFFSET 1.2192 -0.487915 3.41376
                CHANNELS 3 Zrotation Xrotation Yrotation
                JOINT lThumb2
                {
                  OFFSET 3.37035 -0.52449 3.41376
                  CHANNELS 3 Zrotation Xrotation Yrotation
                  End Site
                  {
                    OFFSET 1.78271 -1.18214 1.43049
                  }
                }
              }
              JOINT lIndex1
              {
                OFFSET 7.75947 0.938293 5.60832
                CHANNELS 3 Zrotation Xrotation Yrotation
                JOINT lIndex2
                {
                  OFFSET 2.54057 -0.884171 1.56538
                  CHANNELS 3 Zrotation Xrotation Yrotation
                  End Site
                  {
                    OFFSET 1.62519 -0.234802 1.16502
                  }
                }
              }
              JOINT lMid1
              {
                OFFSET 8.24714 1.18213 3.41376
                CHANNELS 3 Zrotation Xrotation Yrotation
                JOINT lMid2
                {
                  OFFSET 3.10165 -0.590103 1.0647
                  CHANNELS 3 Zrotation Xrotation Yrotation
                  End Site
                  {
                    OFFSET 2.48547 -0.328903 0.83742
                  }
                }
              }
              JOINT lRing1
              {
                OFFSET 8.82822 0.546677 1.51678
                CHANNELS 3 Zrotation Xrotation Yrotation
                JOINT lRing2
                {
                  OFFSET 2.60934 -0.819778 -0.0198488
                  CHANNELS 3 Zrotation Xrotation Yrotation
                  End Site
                  {
                    OFFSET 2.33842 -0.294052 0.168128
                  }
                }
              }
              JOINT lPinky1
              {
                OFFSET 8.27202 -0.0477905 -0.4584
                CHANNELS 3 Zrotation Xrotation Yrotation
                JOINT lPinky2
                {
                  OFFSET 1.82734 -0.647385 -0.700984
                  CHANNELS 3 Zrotation Xrotation Yrotation
                  End Site
                  {
                    OFFSET 1.69225 -0.51767 -0.607171
                  }
                }
              }
            }
          }
        }
      }
    }
  }
  JOINT rButtock
  {
    OFFSET -8.77824 4.35084 1.2192
    CHANNELS 3 Zrotation Xrotation Yrotation
    JOINT rThigh
    {
      OFFSET 0 -1.70687 -2.19456
      CHANNELS 3 Zrotation Xrotation Yrotation
      JOINT rShin
      {
        OFFSET 0 -36.8199 0.73152
        CHANNELS 3 Zrotation Xrotation Yrotation
        JOINT rFoot
        {
          OFFSET 0.73152 -45.1104 -5.12064
          CHANNELS 3 Zrotation Xrotation Yrotation
          End Site
          {
            OFFSET -1.1221 -3.69964 12.103
          }
        }
      }
    }
  }
  JOINT lButtock
  {
    OFFSET 8.77824 4.35084 1.2192
    CHANNELS 3 Zrotation Xrotation Yrotation
    JOINT lThigh
    {
      OFFSET 0 -1.70687 -2.19456
      CHANNELS 3 Zrotation Xrotation Yrotation
      JOINT lShin
      {
        OFFSET 0 -36.8199 0.73152
        CHANNELS 3 Zrotation Xrotation Yrotation
        JOINT lFoot
        {
          OFFSET -0.73152 -45.1104 -5.12064
          CHANNELS 3 Zrotation Xrotation Yrotation
          End Site
          {
            OFFSET 1.1221 -3.69964 12.103
          }
        }
      }
    }
  }
}
MOTION
Frames:	9
Frame Time:	0.00833333
54.3357 57.7678 189.583 178.879 3.879 -134.342 -5.68851 -2.25696 -1.17852 0.954849 -0.460545 -0.304278 2.7782 15.4723 -5.84739 7.82207 -69.2522 -1.50654 -0.0 0.0 0.0 -0.0 0.0 0.0 3.2911e-14 -1.12937e-13 -5.2846e-14 78.2179 16.619 7.76871 -14.2849 -7.1711 26.2148 0.0281821 -0.085412 -0.013793 1.19347e-09 -1.48538e-09 -2.19914e-09 2.04848e-09 -2.5807e-09 -3.79249e-09 1.19347e-09 -1.48538e-09 -2.19916e-09 7.73091 5.47488 0.417314 1.19347e-09 -1.48538e-09 -2.19915e-09 2.90554 0.965183 0.102902 1.19347e-09 -1.48538e-09 -2.19914e-09 10.2786 0.731801 0.0259123 1.19346e-09 -1.48538e-09 -2.19914e-09 2.22167 -0.733487 -0.20892 3.29103e-14 -1.12933e-13 -5.30872e-14 -64.2828 33.9111 -8.90387 15.8155 -8.50454 -29.3231 0.00819413 -3.31675 0.466512 -2.61426e-10 5.68417e-11 9.10329e-10 -4.52126e-10 9.54539e-11 1.57454e-09 -2.61429e-10 5.68416e-11 9.10342e-10 -7.73091 5.47488 -0.417314 -2.61422e-10 5.6847e-11 9.10327e-10 -2.90554 0.965183 -0.102902 -2.6143e-10 5.68419e-11 9.1033e-10 -10.2786 0.731801 -0.0259123 -2.61417e-10 5.68485e-11 9.1032e-10 -2.22167 -0.733487 0.20892 -2.03217e-16 0.0 -3.88251e-19 112.587 -82.2989 113.68 -25.9296 87.9102 27.3931 -11.2953 -37.0303 -15.2478 2.03217e-16 0.0 3.88251e-19 -154.375 -84.3616 -154.4 139.941 88.3094 -140.383 0.126003 -23.8845 -0.601039
54.2625 58.2122 188.776 178.838 4.0828 -135.298 -5.8103 -2.60013 -1.1897 0.971866 -0.551869 -0.294382 2.7169 15.4215 -5.77977 7.64468 -68.4381 -1.77475 -0.0 0.0 0.0 -0.0 0.0 0.0 -1.4111e-14 -8.58777e-14 -6.0679e-14 77.2314 19.9005 8.89219 -15.6826 -8.39563 29.0053 -0.0154967 -3.55175 -0.499813 1.15304e-09 -8.73584e-10 8.42014e-10 1.99318e-09 -1.50882e-09 1.45639e-09 1.15305e-09 -8.73583e-10 8.41995e-10 7.73091 5.47488 0.417314 1.15304e-09 -8.73579e-10 8.42004e-10 2.90554 0.965183 0.102902 1.15304e-09 -8.73581e-10 8.4201e-10 10.2786 0.731801 0.0259123 1.15304e-09 -8.7358e-10 8.42014e-10 2.22167 -0.733487 -0.20892 -1.41173e-14 -8.5873e-14 -6.09275e-14 -63.0944 35.301 -10.457 16.5246 -9.18381 -30.7879 0.027655 -4.74169 0.667942 5.58996e-10 -8.4396e-11 -3.59912e-10 9.64762e-10 -1.45272e-10 -6.20272e-10 5.58993e-10 -8.43956e-11 -3.59899e-10 -7.73091 5.47488 -0.417314 5.59e-10 -8.43896e-11 -3.59915e-10 -2.90554 0.965183 -0.102902 5.58992e-10 -8.43961e-11 -3.59912e-10 -10.2786 0.731801 -0.0259123 5.59002e-10 -8.43885e-11 -3.59921e-10 -2.22167 -0.733487 0.20892 -2.03217e-16 0.0 -3.88251e-19 101.733 -82.545 103.085 -19.9357 87.3556 21.4022 -11.3991 -36.9762 -15.4195 2.03217e-16 0.0 3.88251e-19 -143.376 -85.5872 -143.455 118.131 88.7797 -118.562 -0.0250187 -23.6513 -0.896572
54.1799 58.7248 188.095 178.702 4.1684 -135.762 -5.8913 -2.93746 -1.29297 0.96377 -0.604013 -0.310509 2.57792 15.2085 -5.62728 7.69314 -67.5681 -1.64811 -0.0 0.0 0.0 -0.0 0.0 0.0 -4.78332e-14 5.65758e-14 -8.18007e-15 75.9939 22.9173 10.0083 -17.1252 -9.82155 31.9487 -0.061441 -6.32038 -0.890177 8.71404e-11 1.54878e-09 3.35428e-09 1.36122e-10 2.70298e-09 5.79118e-09 8.71438e-11 1.54878e-09 3.35426e-09 7.73091 5.47488 0.417314 8.71369e-11 1.54878e-09 3.35427e-09 2.90554 0.965183 0.102902 8.71415e-11 1.54878e-09 3.35427e-09 10.2786 0.731801 0.0259123 8.71347e-11 1.54878e-09 3.35428e-09 2.22167 -0.733487 -0.20892 -4.78518e-14 5.65816e-14 -8.40292e-15 -61.578 36.8344 -12.1189 17.3209 -9.99468 -32.4614 0.0443907 -5.88666 0.830268 1.22837e-09 -4.53622e-10 -1.63346e-09 2.13447e-09 -7.74839e-10 -2.82007e-09 1.22837e-09 -4.53621e-10 -1.63345e-09 -7.73091 5.47488 -0.417314 1.22838e-09 -4.53615e-10 -1.63346e-09 -2.90554 0.965183 -0.102902 1.22837e-09 -4.53621e-10 -1.63346e-09 -10.2786 0.731801 -0.0259123 1.22838e-09 -4.53614e-10 -1.63347e-09 -2.22167 -0.733487 0.20892 -2.03217e-16 0.0 -3.88251e-19 88.8887 -82.6639 90.5633 -15.0334 86.5768 16.4871 -11.3345 -36.8593 -15.3831 2.03217e-16 0.0 3.88251e-19 -122.429 -86.4355 -122.503 78.3676 88.9157 -78.793 -0.116781 -23.442 -1.08306
54.1254 59.3324 187.392 178.607 4.1752 -136.275 -5.94724 -3.28676 -1.4554 0.94337 -0.643725 -0.342864 2.3686 14.8831 -5.41883 7.88875 -66.6264 -1.27942 -0.0 0.0 0.0 -0.0 0.0 0.0 -7.85277e-14 2.77698e-13 8.53066e-14 74.5513 25.8314 11.0751 -18.5593 -11.3583 35.1401 -0.101183 -8.69154 -1.22882 -1.58048e-09 5.22312e-09 5.61733e-09 -2.78208e-09 9.0831e-09 9.69343e-09 -1.58047e-09 5.22312e-09 5.61732e-09 7.73091 5.47488 0.417314 -1.58048e-09 5.22312e-09 5.61733e-09 2.90554 0.965183 0.102902 -1.58047e-09 5.22312e-09 5.61733e-09 10.2786 0.731801 0.0259123 -1.58048e-09 5.22312e-09 5.61734e-09 2.22167 -0.733487 -0.20892 -7.8564e-14 2.77706e-13 8.51326e-14 -59.7464 38.57 -13.8684 18.1774 -10.9007 -34.3687 0.0608413 -6.93531 0.979509 1.80905e-09 -1.01647e-09 -2.92086e-09 3.16019e-09 -1.73551e-09 -5.04307e-09 1.80905e-09 -1.01647e-09 -2.92085e-09 -7.73091 5.47488 -0.417314 1.80906e-09 -1.01647e-09 -2.92086e-09 -2.90554 0.965183 -0.102902 1.80905e-09 -1.01647e-09 -2.92086e-09 -10.2786 0.731801 -0.0259123 1.80906e-09 -1.01647e-09 -2.92087e-09 -2.22167 -0.733487 0.20892 -2.03217e-16 0.0 -3.88251e-19 74.6809 -82.4647 76.7275 -11.4273 85.5939 12.8577 -11.1629 -36.6984 -15.2159 2.03217e-16 0.0 3.88251e-19 -93.0027 -86.4862 -93.0479 43.3118 88.476 -43.7351 -0.170848 -23.2229 -1.20044
54.0794 60.0729 186.634 178.366 4.1736 -136.945 -5.98946 -3.64044 -1.62096 0.927646 -0.646822 -0.376258 2.12034 14.5514 -5.17543 8.18406 -65.6649 -0.767859 -0.0 0.0 0.0 -0.0 0.0 0.0 -9.33536e-14 4.79241e-13 1.77437e-13 72.9546 28.5048 12.1218 -19.8896 -12.9082 38.35 -0.136752 -10.5027 -1.49156 -3.134e-09 8.62333e-09 7.12224e-09 -5.50278e-09 1.49829e-08 1.22867e-08 -3.134e-09 8.62333e-09 7.12223e-09 7.73091 5.47488 0.417314 -3.13401e-09 8.62333e-09 7.12224e-09 2.90554 0.965183 0.102902 -3.134e-09 8.62333e-09 7.12224e-09 10.2786 0.731801 0.0259123 -3.13401e-09 8.62333e-09 7.12225e-09 2.22167 -0.733487 -0.20892 -9.34019e-14 4.79249e-13 1.77312e-13 -57.6857 40.3037 -15.6748 19.0276 -11.846 -36.3525 0.0737785 -7.68534 1.08671 2.14066e-09 -1.45862e-09 -3.84758e-09 3.75392e-09 -2.48932e-09 -6.64307e-09 2.14066e-09 -1.45862e-09 -3.84757e-09 -7.73091 5.47488 -0.417314 2.14067e-09 -1.45862e-09 -3.84758e-09 -2.90554 0.965183 -0.102902 2.14066e-09 -1.45862e-09 -3.84758e-09 -10.2786 0.731801 -0.0259123 2.14066e-09 -1.45862e-09 -3.84758e-09 -2.22167 -0.733487 0.20892 -2.03217e-16 0.0 -3.88251e-19 60.3159 -81.7871 62.7363 -8.81368 84.417 10.2137 -10.9185 -36.4278 -14.9792 2.03217e-16 0.0 3.88251e-19 -66.0097 -85.6165 -66.0032 24.9583 87.5708 -25.383 -0.181182 -22.9396 -1.23672
54.0435 60.8762 185.805 178.138 4.1515 -137.653 -6.02786 -3.99101 -1.73355 0.933647 -0.58912 -0.395504 1.86244 14.3199 -4.91734 8.5497 -64.736 -0.195653 -0.0 0.0 0.0 -0.0 0.0 0.0 -7.94698e-14 5.62955e-13 2.25869e-13 71.2603 30.7998 13.1676 -21.0671 -14.4162 41.3381 -0.16769 -11.5918 -1.65194 -3.85764e-09 1.02233e-08 7.36007e-09 -6.76733e-09 1.77539e-08 1.26944e-08 -3.85764e-09 1.02233e-08 7.36006e-09 7.73091 5.47488 0.417314 -3.85764e-09 1.02233e-08 7.36007e-09 2.90554 0.965183 0.102902 -3.85764e-09 1.02233e-08 7.36007e-09 10.2786 0.731801 0.0259123 -3.85764e-09 1.02233e-08 7.36008e-09 2.22167 -0.733487 -0.20892 -7.95135e-14 5.62962e-13 2.2577e-13 -55.5207 41.838 -17.4776 19.8228 -12.7906 -38.2515 0.0778423 -7.93451 1.12238 2.06282e-09 -1.46573e-09 -4.03908e-09 3.62768e-09 -2.49831e-09 -6.9739e-09 2.06281e-09 -1.46573e-09 -4.03908e-09 -7.73091 5.47488 -0.417314 2.06282e-09 -1.46573e-09 -4.03909e-09 -2.90554 0.965183 -0.102902 2.06281e-09 -1.46573e-09 -4.03908e-09 -10.2786 0.731801 -0.0259123 2.06282e-09 -1.46573e-09 -4.03909e-09 -2.22167 -0.733487 0.20892 -2.03217e-16 0.0 -3.88251e-19 47.4385 -80.5228 50.1893 -6.89749 83.0553 8.26337 -10.6365 -35.9816 -14.7352 2.03217e-16 0.0 3.88251e-19 -46.6175 -83.9878 -46.5318 15.4924 86.2582 -15.9222 -0.142274 -22.5376 -1.18014
54.0095 61.7609 184.86 178.04 4.1743 -138.419 -6.07906 -4.33169 -1.77872 0.99258 -0.428827 -0.397298 1.57532 14.2777 -4.64362 9.08908 -64.0201 0.542948 -0.0 0.0 0.0 -0.0 0.0 0.0 -1.17549e-14 4.54992e-13 2.10839e-13 69.4575 32.604 14.2321 -22.1203 -15.9308 44.0783 -0.173326 -11.6437 -1.66017 -3.2608e-09 9.20665e-09 5.38315e-09 -5.71411e-09 1.59714e-08 9.28123e-09 -3.26079e-09 9.20666e-09 5.38313e-09 7.73091 5.47488 0.417314 -3.2608e-09 9.20665e-09 5.38315e-09 2.90554 0.965183 0.102902 -3.26079e-09 9.20666e-09 5.38314e-09 10.2786 0.731801 0.0259123 -3.2608e-09 9.20665e-09 5.38315e-09 2.22167 -0.733487 -0.20892 -1.1765e-14 4.54995e-13 2.10729e-13 -53.2471 43.1455 -19.3168 20.5743 -13.7549 -40.0669 0.0684462 -7.49686 1.05957 1.23291e-09 -5.98875e-10 -2.96376e-09 2.18212e-09 -1.00845e-09 -5.11783e-09 1.2329e-09 -5.98876e-10 -2.96376e-09 -7.73091 5.47488 -0.417314 1.23291e-09 -5.98878e-10 -2.96377e-09 -2.90554 0.965183 -0.102902 1.2329e-09 -5.98876e-10 -2.96376e-09 -10.2786 0.731801 -0.0259123 1.23291e-09 -5.98876e-10 -2.96377e-09 -2.22167 -0.733487 0.20892 -2.03217e-16 0.0 -3.88251e-19 37.1291 -78.6859 40.1752 -5.52188 81.5617 6.85233 -10.3802 -35.3732 -14.5698 2.03217e-16 0.0 3.88251e-19 -33.7369 -81.6736 -33.5113 10.2615 84.5659 -10.7027 -0.0213633 -22.0996 -0.956458
53.945 62.7119 183.847 177.85 4.2554 -139.077 -6.13193 -4.66813 -1.78617 1.08643 -0.19062 -0.389496 1.25024 14.348 -4.34492 9.77117 -63.4301 1.44113 -0.0 0.0 0.0 -0.0 0.0 0.0 9.57102e-14 2.23634e-13 1.57754e-13 67.5703 34.0221 15.2688 -23.0677 -17.4534 46.7053 -0.148107 -10.8361 -1.54172 -1.82514e-09 6.52377e-09 1.73355e-09 -3.18973e-09 1.12875e-08 2.98191e-09 -1.82514e-09 6.52377e-09 1.73353e-09 7.73091 5.47488 0.417314 -1.82514e-09 6.52377e-09 1.73355e-09 2.90554 0.965183 0.102902 -1.82514e-09 6.52377e-09 1.73355e-09 10.2786 0.731801 0.0259123 -1.82514e-09 6.52377e-09 1.73356e-09 2.22167 -0.733487 -0.20892 9.57537e-14 2.23632e-13 1.57611e-13 -50.8307 44.3227 -21.1937 21.2931 -14.7393 -41.8773 0.0508447 -6.52421 0.920657 -1.63587e-10 8.55932e-10 -9.65283e-10 -2.54988e-10 1.48981e-09 -1.66797e-09 -1.63593e-10 8.55928e-10 -9.65281e-10 -7.73091 5.47488 -0.417314 -1.63588e-10 8.55925e-10 -9.65289e-10 -2.90554 0.965183 -0.102902 -1.63591e-10 8.55926e-10 -9.65283e-10 -10.2786 0.731801 -0.0259123 -1.63581e-10 8.55927e-10 -9.65293e-10 -2.22167 -0.733487 0.20892 -2.03217e-16 0.0 -3.88251e-19 29.2509 -76.3833 32.5752 -4.49377 79.9176 5.78529 -10.1148 -34.6274 -14.4297 2.03217e-16 0.0 3.88251e-19 -25.6288 -78.8196 -25.2116 7.19909 82.5718 -7.65683 0.162604 -21.6214 -0.597771
53.8715 63.7424 182.797 177.658 4.3369 -139.627 -6.15383 -5.01147 -1.76587 1.15835 0.0499716 -0.373648 0.933032 14.3876 -4.02884 10.3655 -62.6213 2.24872 -0.0 0.0 0.0 -0.0 0.0 0.0 1.96963e-13 -1.61719e-14 9.20249e-14 65.7082 35.2435 16.1962 -23.8922 -18.9108 49.2028 -0.117671 -9.74522 -1.383 -2.93241e-10 3.29875e-09 -1.86301e-09 -4.9789e-10 5.66835e-09 -3.22514e-09 -2.9323e-10 3.29875e-09 -1.86305e-09 7.73091 5.47488 0.417314 -2.93235e-10 3.29874e-09 -1.86302e-09 2.90554 0.965183 0.102902 -2.93233e-10 3.29875e-09 -1.86302e-09 10.2786 0.731801 0.0259123 -2.93242e-10 3.29875e-09 -1.86302e-09 2.22167 -0.733487 -0.20892 1.97059e-13 -1.61796e-14 9.18463e-14 -48.3981 45.3752 -22.9552 21.9529 -15.6955 -43.6303 0.0340321 -5.32108 0.74983 -1.49489e-09 2.12561e-09 1.01798e-09 -2.58091e-09 3.66777e-09 1.75567e-09 -1.4949e-09 2.12561e-09 1.01798e-09 -7.73091 5.47488 -0.417314 -1.4949e-09 2.1256e-09 1.01797e-09 -2.90554 0.965183 -0.102902 -1.4949e-09 2.1256e-09 1.01798e-09 -10.2786 0.731801 -0.0259123 -1.49488e-09 2.1256e-09 1.01797e-09 -2.22167 -0.733487 0.20892 -2.03217e-16 0.0 -3.88251e-19 23.1843 -73.6795 26.7394 -3.65266 78.0235 4.89778 -9.73553 -33.6945 -14.1729 2.03217e-16 0.0 3.88251e-19 -20.0838 -75.6109 -19.4684 5.25875 80.3061 -5.7318 0.336893 -20.9195 -0.252104
